# xmcd CD database file
#
# Track frame offsets:
#	187
#	46650
#	92737
#	150375
#	175200
#	199500
#	233137
#
# Disc length: 3407 seconds
#
# Revision: 0
# Processed by: cddbd v1.5.2PL0 Copyright (c) Steve Scherf et al.
# Submitted via: CDex 1.70beta2
#
DISCID=470d4d07
DTITLE=Satoko Fujii - Looking Out Of The Window (Trio)
DYEAR=1997
DGENRE=Jazz
TTITLE0=City Life
TTITLE1=This Is The Thing That I Have Forgotten
TTITLE2=The Sun Was Yellow
TTITLE3=210
TTITLE4=Yad Nus
TTITLE5=Looking Out The Window
TTITLE6=Let's Get Out Of Here
EXTD=YEAR: 1997
EXTT0=
EXTT1=
EXTT2=
EXTT3=
EXTT4=
EXTT5=
EXTT6=
PLAYORDER=
